<?xml version="1.0" standalone="no"?>
<!DOCTYPE svg PUBLIC "-//W3C//DTD SVG 20010904//EN"
 "http://www.w3.org/TR/2001/REC-SVG-20010904/DTD/svg10.dtd">
<svg version="1.0" xmlns="http://www.w3.org/2000/svg"
 width="260.000000pt" height="260.000000pt" viewBox="0 0 260.000000 260.000000"
 preserveAspectRatio="xMidYMid meet">
<metadata>
Created by potrace 1.14, written by Peter Selinger 2001-2017
</metadata>
<g transform="translate(0.000000,260.000000) scale(0.100000,-0.100000)"
fill="#000000" stroke="none">
<path d="M0 1300 l0 -1300 1300 0 1300 0 0 1300 0 1300 -1300 0 -1300 0 0
-1300z m2050 791 c0 -6 -4 -12 -9 -15 -5 -4 -12 -25 -16 -49 -4 -23 -13 -69
-20 -102 -8 -33 -16 -72 -20 -87 l-5 -28 -400 0 -400 0 -4 -22 c-3 -13 -12
-54 -20 -93 -24 -107 -46 -219 -46 -232 0 -10 78 -12 343 -12 l342 0 -1 -28
c-1 -31 -42 -232 -50 -245 -3 -4 -162 -8 -353 -8 l-349 0 -6 -37 c-4 -21 -18
-90 -32 -153 -13 -63 -31 -144 -39 -180 -7 -36 -25 -118 -40 -183 l-27 -117
-164 0 -165 0 6 48 c4 26 13 72 21 103 7 30 25 113 39 185 14 71 32 156 40
189 18 83 51 234 70 330 9 44 24 109 32 145 8 36 28 128 44 205 16 77 40 194
54 260 14 66 25 123 25 127 0 5 259 8 575 8 353 0 575 -4 575 -9z"/>
</g>
</svg>
